<?xml version="1.0" encoding="UTF-8" standalone="no"?>
<!DOCTYPE svg PUBLIC "-//W3C//DTD SVG 1.1//EN"
 "http://www.w3.org/Graphics/SVG/1.1/DTD/svg11.dtd">
<!-- Generated by graphviz version 14.1.2 (0)
 -->
<!-- Title: phosphene Pages: 1 -->
<svg width="485pt" height="1118pt"
 viewBox="0.00 0.00 485.00 1118.00" xmlns="http://www.w3.org/2000/svg" xmlns:xlink="http://www.w3.org/1999/xlink">
<g id="graph0" class="graph" transform="scale(1 1) rotate(0) translate(4 1113.75)">
<title>phosphene</title>
<g id="clust1" class="cluster">
<title>cluster_enc</title>
<path fill="#f3f6fb" stroke="#c9d4e6" d="M54,-813.25C54,-813.25 279,-813.25 279,-813.25 285,-813.25 291,-819.25 291,-825.25 291,-825.25 291,-1034.75 291,-1034.75 291,-1040.75 285,-1046.75 279,-1046.75 279,-1046.75 54,-1046.75 54,-1046.75 48,-1046.75 42,-1040.75 42,-1034.75 42,-1034.75 42,-825.25 42,-825.25 42,-819.25 48,-813.25 54,-813.25"/>
<text xml:space="preserve" text-anchor="middle" x="166.62" y="-1031.35" font-family="Helvetica,Arial,sans-serif" font-size="12.00" fill="#334155"> &#160;① &#160;Encoder — build the composite signal &#160;</text>
</g>
<g id="clust2" class="cluster">
<title>cluster_ch</title>
<path fill="#fbf1f1" stroke="#e6cccc" d="M34,-409C34,-409 315,-409 315,-409 321,-409 327,-415 327,-421 327,-421 327,-703.5 327,-703.5 327,-709.5 321,-715.5 315,-715.5 315,-715.5 34,-715.5 34,-715.5 28,-715.5 22,-709.5 22,-703.5 22,-703.5 22,-421 22,-421 22,-415 28,-409 34,-409"/>
<text xml:space="preserve" text-anchor="middle" x="174.38" y="-700.1" font-family="Helvetica,Arial,sans-serif" font-size="12.00" fill="#334155"> &#160;② &#160;Channel — repeats × dubGens tape generations &#160;</text>
</g>
<g id="clust3" class="cluster">
<title>cluster_rx</title>
<path fill="#f3f1fb" stroke="#d4cce6" d="M20,-65C20,-65 257,-65 257,-65 263,-65 269,-71 269,-77 269,-77 269,-359.5 269,-359.5 269,-365.5 263,-371.5 257,-371.5 257,-371.5 20,-371.5 20,-371.5 14,-371.5 8,-365.5 8,-359.5 8,-359.5 8,-77 8,-77 8,-71 14,-65 20,-65"/>
<text xml:space="preserve" text-anchor="middle" x="138.25" y="-356.1" font-family="Helvetica,Arial,sans-serif" font-size="12.00" fill="#334155"> &#160;③ &#160;Receiver — decode the damaged signal &#160;</text>
</g>
<!-- srcA -->
<g id="node1" class="node">
<title>srcA</title>
<path fill="#e7eefc" stroke="#333333" stroke-opacity="0.133333" d="M169,-1109.75C169,-1109.75 33,-1109.75 33,-1109.75 27,-1109.75 21,-1103.75 21,-1097.75 21,-1097.75 21,-1085.75 21,-1085.75 21,-1079.75 27,-1073.75 33,-1073.75 33,-1073.75 169,-1073.75 169,-1073.75 175,-1073.75 181,-1079.75 181,-1085.75 181,-1085.75 181,-1097.75 181,-1097.75 181,-1103.75 175,-1109.75 169,-1109.75"/>
<text xml:space="preserve" text-anchor="middle" x="101" y="-1092.55" font-family="Helvetica,Arial,sans-serif" font-size="11.00" fill="#111111">Source A</text>
<text xml:space="preserve" text-anchor="middle" x="101" y="-1081.3" font-family="Helvetica,Arial,sans-serif" font-size="11.00" fill="#111111">bars · sweep · video · webcam</text>
</g>
<!-- compose -->
<g id="node3" class="node">
<title>compose</title>
<path fill="#dbe9d8" stroke="#333333" stroke-opacity="0.133333" d="M120.75,-1009C120.75,-1009 85.25,-1009 85.25,-1009 79.25,-1009 73.25,-1003 73.25,-997 73.25,-997 73.25,-985 73.25,-985 73.25,-979 79.25,-973 85.25,-973 85.25,-973 120.75,-973 120.75,-973 126.75,-973 132.75,-979 132.75,-985 132.75,-985 132.75,-997 132.75,-997 132.75,-1003 126.75,-1009 120.75,-1009"/>
<text xml:space="preserve" text-anchor="middle" x="103" y="-986.17" font-family="Helvetica,Arial,sans-serif" font-size="11.00" fill="#111111">compose</text>
</g>
<!-- srcA&#45;&gt;compose -->
<g id="edge1" class="edge">
<title>srcA&#45;&gt;compose</title>
<path fill="none" stroke="#555555" d="M101.35,-1073.55C101.64,-1058.91 102.08,-1037.59 102.42,-1020.43"/>
<polygon fill="#555555" stroke="#555555" points="105.91,-1020.92 102.62,-1010.85 98.92,-1020.78 105.91,-1020.92"/>
</g>
<!-- srcB -->
<g id="node2" class="node">
<title>srcB</title>
<path fill="#e7eefc" stroke="#333333" stroke-opacity="0.133333" d="M273.25,-1109.75C273.25,-1109.75 210.75,-1109.75 210.75,-1109.75 204.75,-1109.75 198.75,-1103.75 198.75,-1097.75 198.75,-1097.75 198.75,-1085.75 198.75,-1085.75 198.75,-1079.75 204.75,-1073.75 210.75,-1073.75 210.75,-1073.75 273.25,-1073.75 273.25,-1073.75 279.25,-1073.75 285.25,-1079.75 285.25,-1085.75 285.25,-1085.75 285.25,-1097.75 285.25,-1097.75 285.25,-1103.75 279.25,-1109.75 273.25,-1109.75"/>
<text xml:space="preserve" text-anchor="middle" x="242" y="-1092.55" font-family="Helvetica,Arial,sans-serif" font-size="11.00" fill="#111111">Source B</text>
<text xml:space="preserve" text-anchor="middle" x="242" y="-1081.3" font-family="Helvetica,Arial,sans-serif" font-size="11.00" fill="#111111">non&#45;genlocked</text>
</g>
<!-- encodeYuvB -->
<g id="node6" class="node">
<title>encodeYuvB</title>
<path fill="#dbe9d8" stroke="#333333" stroke-opacity="0.133333" d="M264.38,-1009C264.38,-1009 211.62,-1009 211.62,-1009 205.62,-1009 199.62,-1003 199.62,-997 199.62,-997 199.62,-985 199.62,-985 199.62,-979 205.62,-973 211.62,-973 211.62,-973 264.38,-973 264.38,-973 270.38,-973 276.38,-979 276.38,-985 276.38,-985 276.38,-997 276.38,-997 276.38,-1003 270.38,-1009 264.38,-1009"/>
<text xml:space="preserve" text-anchor="middle" x="238" y="-986.17" font-family="Helvetica,Arial,sans-serif" font-size="11.00" fill="#111111">encodeYuvB</text>
</g>
<!-- srcB&#45;&gt;encodeYuvB -->
<g id="edge4" class="edge">
<title>srcB&#45;&gt;encodeYuvB</title>
<path fill="none" stroke="#555555" d="M241.3,-1073.55C240.71,-1058.91 239.85,-1037.59 239.15,-1020.43"/>
<polygon fill="#555555" stroke="#555555" points="242.67,-1020.7 238.76,-1010.85 235.67,-1020.98 242.67,-1020.7"/>
</g>
<!-- encodeYuv -->
<g id="node4" class="node">
<title>encodeYuv</title>
<path fill="#dbe9d8" stroke="#333333" stroke-opacity="0.133333" d="M142.5,-936C142.5,-936 87.5,-936 87.5,-936 81.5,-936 75.5,-930 75.5,-924 75.5,-924 75.5,-912 75.5,-912 75.5,-906 81.5,-900 87.5,-900 87.5,-900 142.5,-900 142.5,-900 148.5,-900 154.5,-906 154.5,-912 154.5,-912 154.5,-924 154.5,-924 154.5,-930 148.5,-936 142.5,-936"/>
<text xml:space="preserve" text-anchor="middle" x="115" y="-918.8" font-family="Helvetica,Arial,sans-serif" font-size="11.00" fill="#111111">encodeYuv</text>
<text xml:space="preserve" text-anchor="middle" x="115" y="-907.55" font-family="Helvetica,Arial,sans-serif" font-size="11.00" fill="#111111">RGB → YUV</text>
</g>
<!-- compose&#45;&gt;encodeYuv -->
<g id="edge2" class="edge">
<title>compose&#45;&gt;encodeYuv</title>
<path fill="none" stroke="#555555" d="M105.9,-972.81C107.2,-965.14 108.76,-955.89 110.23,-947.24"/>
<polygon fill="#555555" stroke="#555555" points="113.65,-947.96 111.87,-937.52 106.75,-946.8 113.65,-947.96"/>
</g>
<!-- encodeComp -->
<g id="node5" class="node">
<title>encodeComp</title>
<path fill="#cfe3cb" stroke="#333333" stroke-opacity="0.133333" d="M205.38,-863C205.38,-863 68.62,-863 68.62,-863 62.62,-863 56.62,-857 56.62,-851 56.62,-851 56.62,-833.25 56.62,-833.25 56.62,-827.25 62.62,-821.25 68.62,-821.25 68.62,-821.25 205.38,-821.25 205.38,-821.25 211.38,-821.25 217.38,-827.25 217.38,-833.25 217.38,-833.25 217.38,-851 217.38,-851 217.38,-857 211.38,-863 205.38,-863"/>
<text xml:space="preserve" text-anchor="middle" x="137" y="-848.55" font-family="Helvetica,Arial,sans-serif" font-size="11.00" fill="#111111">encodeComposite</text>
<text xml:space="preserve" text-anchor="middle" x="137" y="-837.3" font-family="Helvetica,Arial,sans-serif" font-size="11.00" fill="#111111">Y + chroma modulated on Fsc</text>
<text xml:space="preserve" text-anchor="middle" x="137" y="-826.05" font-family="Helvetica,Arial,sans-serif" font-size="11.00" fill="#111111">→ compA</text>
</g>
<!-- encodeYuv&#45;&gt;encodeComp -->
<g id="edge3" class="edge">
<title>encodeYuv&#45;&gt;encodeComp</title>
<path fill="none" stroke="#555555" d="M120.1,-899.87C122.39,-892.19 125.15,-882.9 127.78,-874.08"/>
<polygon fill="#555555" stroke="#555555" points="131.06,-875.35 130.56,-864.76 124.35,-873.35 131.06,-875.35"/>
</g>
<!-- fbComposite -->
<g id="node8" class="node">
<title>fbComposite</title>
<path fill="#f6e6c8" stroke="#333333" stroke-opacity="0.133333" d="M190.75,-784.25C190.75,-784.25 83.25,-784.25 83.25,-784.25 77.25,-784.25 71.25,-778.25 71.25,-772.25 71.25,-772.25 71.25,-754.5 71.25,-754.5 71.25,-748.5 77.25,-742.5 83.25,-742.5 83.25,-742.5 190.75,-742.5 190.75,-742.5 196.75,-742.5 202.75,-748.5 202.75,-754.5 202.75,-754.5 202.75,-772.25 202.75,-772.25 202.75,-778.25 196.75,-784.25 190.75,-784.25"/>
<text xml:space="preserve" text-anchor="middle" x="137" y="-769.8" font-family="Helvetica,Arial,sans-serif" font-size="11.00" fill="#111111">fbComposite</text>
<text xml:space="preserve" text-anchor="middle" x="137" y="-758.55" font-family="Helvetica,Arial,sans-serif" font-size="11.00" fill="#111111">hardware mixer loop</text>
<text xml:space="preserve" text-anchor="middle" x="137" y="-747.3" font-family="Helvetica,Arial,sans-serif" font-size="11.00" fill="#111111">+ compPrev · key · trails</text>
</g>
<!-- encodeComp&#45;&gt;fbComposite -->
<g id="edge7" class="edge">
<title>encodeComp&#45;&gt;fbComposite</title>
<path fill="none" stroke="#555555" d="M137,-820.96C137,-813.35 137,-804.5 137,-796.09"/>
<polygon fill="#555555" stroke="#555555" points="140.5,-796.19 137,-786.19 133.5,-796.19 140.5,-796.19"/>
</g>
<!-- mixB -->
<g id="node7" class="node">
<title>mixB</title>
<path fill="#dbe9d8" stroke="#333333" stroke-opacity="0.133333" d="M252.62,-936C252.62,-936 189.38,-936 189.38,-936 183.38,-936 177.38,-930 177.38,-924 177.38,-924 177.38,-912 177.38,-912 177.38,-906 183.38,-900 189.38,-900 189.38,-900 252.62,-900 252.62,-900 258.62,-900 264.62,-906 264.62,-912 264.62,-912 264.62,-924 264.62,-924 264.62,-930 258.62,-936 252.62,-936"/>
<text xml:space="preserve" text-anchor="middle" x="221" y="-918.8" font-family="Helvetica,Arial,sans-serif" font-size="11.00" fill="#111111">mixB</text>
<text xml:space="preserve" text-anchor="middle" x="221" y="-907.55" font-family="Helvetica,Arial,sans-serif" font-size="11.00" fill="#111111">dirty mix / wipe</text>
</g>
<!-- encodeYuvB&#45;&gt;mixB -->
<g id="edge5" class="edge">
<title>encodeYuvB&#45;&gt;mixB</title>
<path fill="none" stroke="#555555" d="M233.88,-972.81C232.03,-965.05 229.78,-955.68 227.69,-946.95"/>
<polygon fill="#555555" stroke="#555555" points="231.16,-946.41 225.43,-937.5 224.35,-948.04 231.16,-946.41"/>
</g>
<!-- mixB&#45;&gt;encodeComp -->
<g id="edge6" class="edge">
<title>mixB&#45;&gt;encodeComp</title>
<path fill="none" stroke="#555555" d="M201.52,-899.87C191.73,-891.26 179.62,-880.61 168.55,-870.87"/>
<polygon fill="#555555" stroke="#555555" points="170.91,-868.29 161.09,-864.31 166.29,-873.54 170.91,-868.29"/>
</g>
<!-- chromaExtract -->
<g id="node9" class="node">
<title>chromaExtract</title>
<path fill="#f0d9d9" stroke="#333333" stroke-opacity="0.133333" d="M184.75,-677.75C184.75,-677.75 89.25,-677.75 89.25,-677.75 83.25,-677.75 77.25,-671.75 77.25,-665.75 77.25,-665.75 77.25,-653.75 77.25,-653.75 77.25,-647.75 83.25,-641.75 89.25,-641.75 89.25,-641.75 184.75,-641.75 184.75,-641.75 190.75,-641.75 196.75,-647.75 196.75,-653.75 196.75,-653.75 196.75,-665.75 196.75,-665.75 196.75,-671.75 190.75,-677.75 184.75,-677.75"/>
<text xml:space="preserve" text-anchor="middle" x="137" y="-660.55" font-family="Helvetica,Arial,sans-serif" font-size="11.00" fill="#111111">chromaExtract</text>
<text xml:space="preserve" text-anchor="middle" x="137" y="-649.3" font-family="Helvetica,Arial,sans-serif" font-size="11.00" fill="#111111">bandpass chroma out</text>
</g>
<!-- fbComposite&#45;&gt;chromaExtract -->
<g id="edge8" class="edge">
<title>fbComposite&#45;&gt;chromaExtract</title>
<path fill="none" stroke="#555555" d="M137,-742.3C137,-737.65 137,-732.45 137,-726.99"/>
<polygon fill="#555555" stroke="#555555" points="140.5,-727.01 137,-717.01 133.5,-727.01 140.5,-727.01"/>
</g>
<!-- underDown -->
<g id="node10" class="node">
<title>underDown</title>
<path fill="#f0d9d9" stroke="#333333" stroke-opacity="0.133333" d="M205.38,-604.75C205.38,-604.75 68.62,-604.75 68.62,-604.75 62.62,-604.75 56.62,-598.75 56.62,-592.75 56.62,-592.75 56.62,-580.75 56.62,-580.75 56.62,-574.75 62.62,-568.75 68.62,-568.75 68.62,-568.75 205.38,-568.75 205.38,-568.75 211.38,-568.75 217.38,-574.75 217.38,-580.75 217.38,-580.75 217.38,-592.75 217.38,-592.75 217.38,-598.75 211.38,-604.75 205.38,-604.75"/>
<text xml:space="preserve" text-anchor="middle" x="137" y="-587.55" font-family="Helvetica,Arial,sans-serif" font-size="11.00" fill="#111111">underDown</text>
<text xml:space="preserve" text-anchor="middle" x="137" y="-576.3" font-family="Helvetica,Arial,sans-serif" font-size="11.00" fill="#111111">VHS color&#45;under downconvert</text>
</g>
<!-- chromaExtract&#45;&gt;underDown -->
<g id="edge9" class="edge">
<title>chromaExtract&#45;&gt;underDown</title>
<path fill="none" stroke="#555555" d="M137,-641.56C137,-633.98 137,-624.85 137,-616.29"/>
<polygon fill="#555555" stroke="#555555" points="140.5,-616.29 137,-606.29 133.5,-616.29 140.5,-616.29"/>
</g>
<!-- channel -->
<g id="node11" class="node">
<title>channel</title>
<path fill="#e9c9c9" stroke="#333333" stroke-opacity="0.133333" d="M218.5,-531.75C218.5,-531.75 55.5,-531.75 55.5,-531.75 49.5,-531.75 43.5,-525.75 43.5,-519.75 43.5,-519.75 43.5,-502 43.5,-502 43.5,-496 49.5,-490 55.5,-490 55.5,-490 218.5,-490 218.5,-490 224.5,-490 230.5,-496 230.5,-502 230.5,-502 230.5,-519.75 230.5,-519.75 230.5,-525.75 224.5,-531.75 218.5,-531.75"/>
<text xml:space="preserve" text-anchor="middle" x="137" y="-517.3" font-family="Helvetica,Arial,sans-serif" font-size="11.00" fill="#111111">channel</text>
<text xml:space="preserve" text-anchor="middle" x="137" y="-506.05" font-family="Helvetica,Arial,sans-serif" font-size="11.00" fill="#111111">luma LPF · noise · dropouts · ghost</text>
<text xml:space="preserve" text-anchor="middle" x="137" y="-494.8" font-family="Helvetica,Arial,sans-serif" font-size="11.00" fill="#111111">hum · head&#45;switch · AGC → compB</text>
</g>
<!-- underDown&#45;&gt;channel -->
<g id="edge10" class="edge">
<title>underDown&#45;&gt;channel</title>
<path fill="none" stroke="#555555" d="M137,-568.62C137,-561.11 137,-552.07 137,-543.42"/>
<polygon fill="#555555" stroke="#555555" points="140.5,-543.58 137,-533.58 133.5,-543.58 140.5,-543.58"/>
</g>
<!-- timebase -->
<g id="node12" class="node">
<title>timebase</title>
<path fill="#f0d9d9" stroke="#333333" stroke-opacity="0.133333" d="M207.62,-453C207.62,-453 66.38,-453 66.38,-453 60.38,-453 54.38,-447 54.38,-441 54.38,-441 54.38,-429 54.38,-429 54.38,-423 60.38,-417 66.38,-417 66.38,-417 207.62,-417 207.62,-417 213.62,-417 219.62,-423 219.62,-429 219.62,-429 219.62,-441 219.62,-441 219.62,-447 213.62,-453 207.62,-453"/>
<text xml:space="preserve" text-anchor="middle" x="137" y="-435.8" font-family="Helvetica,Arial,sans-serif" font-size="11.00" fill="#111111">timebase</text>
<text xml:space="preserve" text-anchor="middle" x="137" y="-424.55" font-family="Helvetica,Arial,sans-serif" font-size="11.00" fill="#111111">jitter / wow resample → compA</text>
</g>
<!-- channel&#45;&gt;timebase -->
<g id="edge11" class="edge">
<title>channel&#45;&gt;timebase</title>
<path fill="none" stroke="#555555" d="M137,-489.69C137,-481.91 137,-472.87 137,-464.45"/>
<polygon fill="#555555" stroke="#555555" points="140.5,-464.67 137,-454.67 133.5,-464.67 140.5,-464.67"/>
</g>
<!-- syncMeasure -->
<g id="node13" class="node">
<title>syncMeasure</title>
<path fill="#e0daf3" stroke="#333333" stroke-opacity="0.133333" d="M164.88,-333.75C164.88,-333.75 109.12,-333.75 109.12,-333.75 103.12,-333.75 97.12,-327.75 97.12,-321.75 97.12,-321.75 97.12,-309.75 97.12,-309.75 97.12,-303.75 103.12,-297.75 109.12,-297.75 109.12,-297.75 164.88,-297.75 164.88,-297.75 170.88,-297.75 176.88,-303.75 176.88,-309.75 176.88,-309.75 176.88,-321.75 176.88,-321.75 176.88,-327.75 170.88,-333.75 164.88,-333.75"/>
<text xml:space="preserve" text-anchor="middle" x="137" y="-310.93" font-family="Helvetica,Arial,sans-serif" font-size="11.00" fill="#111111">syncMeasure</text>
</g>
<!-- timebase&#45;&gt;syncMeasure -->
<g id="edge12" class="edge">
<title>timebase&#45;&gt;syncMeasure</title>
<path fill="none" stroke="#555555" d="M137,-409C137,-401.11 137,-392 137,-382.63"/>
<polygon fill="#555555" stroke="#555555" points="140.5,-383.01 137,-373.01 133.5,-383.01 140.5,-383.01"/>
</g>
<!-- sync -->
<g id="node14" class="node">
<title>sync</title>
<path fill="#e0daf3" stroke="#333333" stroke-opacity="0.133333" d="M177.62,-260.75C177.62,-260.75 96.38,-260.75 96.38,-260.75 90.38,-260.75 84.38,-254.75 84.38,-248.75 84.38,-248.75 84.38,-236.75 84.38,-236.75 84.38,-230.75 90.38,-224.75 96.38,-224.75 96.38,-224.75 177.62,-224.75 177.62,-224.75 183.62,-224.75 189.62,-230.75 189.62,-236.75 189.62,-236.75 189.62,-248.75 189.62,-248.75 189.62,-254.75 183.62,-260.75 177.62,-260.75"/>
<text xml:space="preserve" text-anchor="middle" x="137" y="-243.55" font-family="Helvetica,Arial,sans-serif" font-size="11.00" fill="#111111">sync</text>
<text xml:space="preserve" text-anchor="middle" x="137" y="-232.3" font-family="Helvetica,Arial,sans-serif" font-size="11.00" fill="#111111">recover H/V timing</text>
</g>
<!-- syncMeasure&#45;&gt;sync -->
<g id="edge13" class="edge">
<title>syncMeasure&#45;&gt;sync</title>
<path fill="none" stroke="#555555" d="M137,-297.56C137,-289.98 137,-280.85 137,-272.29"/>
<polygon fill="#555555" stroke="#555555" points="140.5,-272.29 137,-262.29 133.5,-272.29 140.5,-272.29"/>
</g>
<!-- lineAnalyze -->
<g id="node15" class="node">
<title>lineAnalyze</title>
<path fill="#e0daf3" stroke="#333333" stroke-opacity="0.133333" d="M196.38,-187.75C196.38,-187.75 77.62,-187.75 77.62,-187.75 71.62,-187.75 65.62,-181.75 65.62,-175.75 65.62,-175.75 65.62,-163.75 65.62,-163.75 65.62,-157.75 71.62,-151.75 77.62,-151.75 77.62,-151.75 196.38,-151.75 196.38,-151.75 202.38,-151.75 208.38,-157.75 208.38,-163.75 208.38,-163.75 208.38,-175.75 208.38,-175.75 208.38,-181.75 202.38,-187.75 196.38,-187.75"/>
<text xml:space="preserve" text-anchor="middle" x="137" y="-170.55" font-family="Helvetica,Arial,sans-serif" font-size="11.00" fill="#111111">lineAnalyze</text>
<text xml:space="preserve" text-anchor="middle" x="137" y="-159.3" font-family="Helvetica,Arial,sans-serif" font-size="11.00" fill="#111111">per&#45;line burst phase &amp; lock</text>
</g>
<!-- sync&#45;&gt;lineAnalyze -->
<g id="edge14" class="edge">
<title>sync&#45;&gt;lineAnalyze</title>
<path fill="none" stroke="#555555" d="M137,-224.56C137,-216.98 137,-207.85 137,-199.29"/>
<polygon fill="#555555" stroke="#555555" points="140.5,-199.29 137,-189.29 133.5,-199.29 140.5,-199.29"/>
</g>
<!-- decode -->
<g id="node16" class="node">
<title>decode</title>
<path fill="#d3cbeb" stroke="#333333" stroke-opacity="0.133333" d="M221.88,-114.75C221.88,-114.75 52.12,-114.75 52.12,-114.75 46.12,-114.75 40.12,-108.75 40.12,-102.75 40.12,-102.75 40.12,-85 40.12,-85 40.12,-79 46.12,-73 52.12,-73 52.12,-73 221.88,-73 221.88,-73 227.88,-73 233.88,-79 233.88,-85 233.88,-85 233.88,-102.75 233.88,-102.75 233.88,-108.75 227.88,-114.75 221.88,-114.75"/>
<text xml:space="preserve" text-anchor="middle" x="137" y="-100.3" font-family="Helvetica,Arial,sans-serif" font-size="11.00" fill="#111111">decode</text>
<text xml:space="preserve" text-anchor="middle" x="137" y="-89.05" font-family="Helvetica,Arial,sans-serif" font-size="11.00" fill="#111111">comb filter · chroma demod · color&#45;kill</text>
<text xml:space="preserve" text-anchor="middle" x="137" y="-77.8" font-family="Helvetica,Arial,sans-serif" font-size="11.00" fill="#111111">→ RGB</text>
</g>
<!-- lineAnalyze&#45;&gt;decode -->
<g id="edge15" class="edge">
<title>lineAnalyze&#45;&gt;decode</title>
<path fill="none" stroke="#555555" d="M137,-151.62C137,-144.11 137,-135.07 137,-126.42"/>
<polygon fill="#555555" stroke="#555555" points="140.5,-126.58 137,-116.58 133.5,-126.58 140.5,-126.58"/>
</g>
<!-- storePrev -->
<g id="node17" class="node">
<title>storePrev</title>
<path fill="#f6e6c8" stroke="#333333" stroke-opacity="0.133333" d="M130.25,-36C130.25,-36 25.75,-36 25.75,-36 19.75,-36 13.75,-30 13.75,-24 13.75,-24 13.75,-12 13.75,-12 13.75,-6 19.75,0 25.75,0 25.75,0 130.25,0 130.25,0 136.25,0 142.25,-6 142.25,-12 142.25,-12 142.25,-24 142.25,-24 142.25,-30 136.25,-36 130.25,-36"/>
<text xml:space="preserve" text-anchor="middle" x="78" y="-13.18" font-family="Helvetica,Arial,sans-serif" font-size="11.00" fill="#111111">storePrev → compPrev</text>
</g>
<!-- decode&#45;&gt;storePrev -->
<g id="edge17" class="edge">
<title>decode&#45;&gt;storePrev</title>
<path fill="none" stroke="#555555" d="M120.88,-72.69C114.09,-64.19 106.11,-54.19 98.88,-45.14"/>
<polygon fill="#555555" stroke="#555555" points="101.62,-42.97 92.65,-37.34 96.15,-47.34 101.62,-42.97"/>
</g>
<!-- present -->
<g id="node18" class="node">
<title>present</title>
<path fill="#dfe3ea" stroke="#333333" stroke-opacity="0.133333" d="M284,-36C284,-36 172,-36 172,-36 166,-36 160,-30 160,-24 160,-24 160,-12 160,-12 160,-6 166,0 172,0 172,0 284,0 284,0 290,0 296,-6 296,-12 296,-12 296,-24 296,-24 296,-30 290,-36 284,-36"/>
<text xml:space="preserve" text-anchor="middle" x="228" y="-18.8" font-family="Helvetica,Arial,sans-serif" font-size="11.00" fill="#111111">present</text>
<text xml:space="preserve" text-anchor="middle" x="228" y="-7.55" font-family="Helvetica,Arial,sans-serif" font-size="11.00" fill="#111111">scanline beam → canvas</text>
</g>
<!-- decode&#45;&gt;present -->
<g id="edge16" class="edge">
<title>decode&#45;&gt;present</title>
<path fill="none" stroke="#555555" d="M161.87,-72.69C172.91,-63.72 186.01,-53.08 197.63,-43.65"/>
<polygon fill="#555555" stroke="#555555" points="199.83,-46.38 205.39,-37.36 195.42,-40.94 199.83,-46.38"/>
</g>
<!-- storePrev&#45;&gt;fbComposite -->
<g id="edge18" class="edge">
<title>storePrev&#45;&gt;fbComposite</title>
<path fill="none" stroke="#b8860b" stroke-dasharray="5,2" d="M136.02,-36.46C158.65,-42.87 184.9,-49.82 209,-55 223.07,-58.02 262.58,-55.07 273,-65 295.27,-86.2 287,-102 287,-132.75 287,-279.75 287,-279.75 287,-279.75 287,-321 301.28,-341.47 273,-371.5 269.85,-374.84 204.38,-364.17 235.75,-399 249.99,-414.82 315.09,-394.86 331,-409 352.11,-427.77 345,-442.75 345,-471 345,-623.75 345,-623.75 345,-623.75 345,-665 361.42,-687.64 331,-715.5 320.74,-724.9 219.34,-719.54 206,-723.5 195.84,-726.52 185.53,-731.24 176.1,-736.38"/>
<polygon fill="#b8860b" stroke="#b8860b" points="174.49,-733.27 167.56,-741.29 177.98,-739.33 174.49,-733.27"/>
<text xml:space="preserve" text-anchor="middle" x="262.38" y="-390.45" font-family="Helvetica,Arial,sans-serif" font-size="9.00" fill="#b8860b"> &#160;next frame</text>
<text xml:space="preserve" text-anchor="middle" x="262.38" y="-380.7" font-family="Helvetica,Arial,sans-serif" font-size="9.00" fill="#b8860b"> &#160;(mixer loop)</text>
</g>
<!-- present&#45;&gt;compose -->
<g id="edge19" class="edge">
<title>present&#45;&gt;compose</title>
<path fill="none" stroke="#2f7d32" stroke-dasharray="5,2" d="M264.21,-36.4C275.76,-43.68 287.48,-53.23 295,-65 451.19,-309.7 412.03,-431.06 354,-715.5 333.16,-817.65 349.25,-863.85 274,-936 255.29,-953.94 188.58,-971.39 144.22,-981.39"/>
<polygon fill="#2f7d32" stroke="#2f7d32" points="143.68,-977.93 134.67,-983.5 145.19,-984.76 143.68,-977.93"/>
<text xml:space="preserve" text-anchor="middle" x="436.86" y="-512.08" font-family="Helvetica,Arial,sans-serif" font-size="9.00" fill="#2f7d32"> &#160;previous frame</text>
<text xml:space="preserve" text-anchor="middle" x="436.86" y="-502.32" font-family="Helvetica,Arial,sans-serif" font-size="9.00" fill="#2f7d32"> &#160;camera&#45;at&#45;monitor</text>
</g>
</g>
</svg>
