<?xml version="1.0" encoding="UTF-8" standalone="no"?>
<!DOCTYPE svg PUBLIC "-//W3C//DTD SVG 1.1//EN"
 "http://www.w3.org/Graphics/SVG/1.1/DTD/svg11.dtd">
<!-- Generated by graphviz version 14.1.2 (0)
 -->
<!-- Title: phosphene_simple Pages: 1 -->
<svg width="800pt" height="138pt"
 viewBox="0.00 0.00 800.00 138.00" xmlns="http://www.w3.org/2000/svg" xmlns:xlink="http://www.w3.org/1999/xlink">
<g id="graph0" class="graph" transform="scale(1 1) rotate(0) translate(4 134.06)">
<title>phosphene_simple</title>
<!-- src -->
<g id="node1" class="node">
<title>src</title>
<path fill="#e7eefc" stroke="#333333" stroke-opacity="0.133333" d="M134.43,-123.68C134.43,-123.68 12,-123.68 12,-123.68 6,-123.68 0,-117.68 0,-111.68 0,-111.68 0,-90.02 0,-90.02 0,-84.02 6,-78.02 12,-78.02 12,-78.02 134.43,-78.02 134.43,-78.02 140.43,-78.02 146.43,-84.02 146.43,-90.02 146.43,-90.02 146.43,-111.68 146.43,-111.68 146.43,-117.68 140.43,-123.68 134.43,-123.68"/>
<text xml:space="preserve" text-anchor="middle" x="73.22" y="-102.2" font-family="Helvetica,Arial,sans-serif" font-size="12.00" fill="#111111">RGB source</text>
<text xml:space="preserve" text-anchor="middle" x="73.22" y="-89.45" font-family="Helvetica,Arial,sans-serif" font-size="12.00" fill="#111111">bars · video · webcam</text>
</g>
<!-- encode -->
<g id="node2" class="node">
<title>encode</title>
<path fill="#cfe3cb" stroke="#333333" stroke-opacity="0.133333" d="M311.86,-130.06C311.86,-130.06 195.43,-130.06 195.43,-130.06 189.43,-130.06 183.43,-124.06 183.43,-118.06 183.43,-118.06 183.43,-83.65 183.43,-83.65 183.43,-77.65 189.43,-71.65 195.43,-71.65 195.43,-71.65 311.86,-71.65 311.86,-71.65 317.86,-71.65 323.86,-77.65 323.86,-83.65 323.86,-83.65 323.86,-118.06 323.86,-118.06 323.86,-124.06 317.86,-130.06 311.86,-130.06"/>
<text xml:space="preserve" text-anchor="middle" x="253.65" y="-108.58" font-family="Helvetica,Arial,sans-serif" font-size="12.00" fill="#111111">Encode</text>
<text xml:space="preserve" text-anchor="middle" x="253.65" y="-95.83" font-family="Helvetica,Arial,sans-serif" font-size="12.00" fill="#111111">build NTSC</text>
<text xml:space="preserve" text-anchor="middle" x="253.65" y="-83.08" font-family="Helvetica,Arial,sans-serif" font-size="12.00" fill="#111111">composite waveform</text>
</g>
<!-- src&#45;&gt;encode -->
<g id="edge1" class="edge">
<title>src&#45;&gt;encode</title>
<path fill="none" stroke="#555555" d="M146.79,-100.85C155.01,-100.85 163.44,-100.85 171.76,-100.85"/>
<polygon fill="#555555" stroke="#555555" points="171.51,-104.35 181.51,-100.85 171.51,-97.35 171.51,-104.35"/>
</g>
<!-- damage -->
<g id="node3" class="node">
<title>damage</title>
<path fill="#e9c9c9" stroke="#333333" stroke-opacity="0.133333" d="M478.79,-130.06C478.79,-130.06 372.86,-130.06 372.86,-130.06 366.86,-130.06 360.86,-124.06 360.86,-118.06 360.86,-118.06 360.86,-83.65 360.86,-83.65 360.86,-77.65 366.86,-71.65 372.86,-71.65 372.86,-71.65 478.79,-71.65 478.79,-71.65 484.79,-71.65 490.79,-77.65 490.79,-83.65 490.79,-83.65 490.79,-118.06 490.79,-118.06 490.79,-124.06 484.79,-130.06 478.79,-130.06"/>
<text xml:space="preserve" text-anchor="middle" x="425.83" y="-108.58" font-family="Helvetica,Arial,sans-serif" font-size="12.00" fill="#111111">Channel</text>
<text xml:space="preserve" text-anchor="middle" x="425.83" y="-95.83" font-family="Helvetica,Arial,sans-serif" font-size="12.00" fill="#111111">damage the signal</text>
<text xml:space="preserve" text-anchor="middle" x="425.83" y="-83.08" font-family="Helvetica,Arial,sans-serif" font-size="12.00" fill="#111111">(tape · RF · VHS)</text>
</g>
<!-- encode&#45;&gt;damage -->
<g id="edge2" class="edge">
<title>encode&#45;&gt;damage</title>
<path fill="none" stroke="#555555" d="M324.35,-100.85C332.47,-100.85 340.77,-100.85 348.96,-100.85"/>
<polygon fill="#555555" stroke="#555555" points="348.91,-104.35 358.91,-100.85 348.91,-97.35 348.91,-104.35"/>
</g>
<!-- decode -->
<g id="node4" class="node">
<title>decode</title>
<path fill="#d3cbeb" stroke="#333333" stroke-opacity="0.133333" d="M633.72,-130.06C633.72,-130.06 539.79,-130.06 539.79,-130.06 533.79,-130.06 527.79,-124.06 527.79,-118.06 527.79,-118.06 527.79,-83.65 527.79,-83.65 527.79,-77.65 533.79,-71.65 539.79,-71.65 539.79,-71.65 633.72,-71.65 633.72,-71.65 639.72,-71.65 645.72,-77.65 645.72,-83.65 645.72,-83.65 645.72,-118.06 645.72,-118.06 645.72,-124.06 639.72,-130.06 633.72,-130.06"/>
<text xml:space="preserve" text-anchor="middle" x="586.76" y="-108.58" font-family="Helvetica,Arial,sans-serif" font-size="12.00" fill="#111111">Decode</text>
<text xml:space="preserve" text-anchor="middle" x="586.76" y="-95.83" font-family="Helvetica,Arial,sans-serif" font-size="12.00" fill="#111111">imperfect TV</text>
<text xml:space="preserve" text-anchor="middle" x="586.76" y="-83.08" font-family="Helvetica,Arial,sans-serif" font-size="12.00" fill="#111111">receiver → RGB</text>
</g>
<!-- damage&#45;&gt;decode -->
<g id="edge3" class="edge">
<title>damage&#45;&gt;decode</title>
<path fill="none" stroke="#555555" d="M491.01,-100.85C499.3,-100.85 507.82,-100.85 516.2,-100.85"/>
<polygon fill="#555555" stroke="#555555" points="515.97,-104.35 525.97,-100.85 515.97,-97.35 515.97,-104.35"/>
</g>
<!-- decode&#45;&gt;encode -->
<g id="edge5" class="edge">
<title>decode&#45;&gt;encode</title>
<path fill="none" stroke="#b8860b" stroke-dasharray="5,2" d="M548.81,-71.2C532.11,-59.64 511.51,-47.76 490.79,-41.85 435.26,-26.01 416.76,-27.37 360.86,-41.85 341.91,-46.76 322.75,-55.86 306.01,-65.47"/>
<polygon fill="#b8860b" stroke="#b8860b" points="304.56,-62.26 297.76,-70.39 308.14,-68.28 304.56,-62.26"/>
<text xml:space="preserve" text-anchor="middle" x="425.83" y="-53.35" font-family="Helvetica,Arial,sans-serif" font-size="10.00" fill="#b8860b"> &#160;composite feedback</text>
<text xml:space="preserve" text-anchor="middle" x="425.83" y="-42.85" font-family="Helvetica,Arial,sans-serif" font-size="10.00" fill="#b8860b"> &#160;(hardware mixer)</text>
</g>
<!-- screen -->
<g id="node5" class="node">
<title>screen</title>
<path fill="#dfe3ea" stroke="#333333" stroke-opacity="0.133333" d="M780.4,-123.68C780.4,-123.68 694.72,-123.68 694.72,-123.68 688.72,-123.68 682.72,-117.68 682.72,-111.68 682.72,-111.68 682.72,-90.02 682.72,-90.02 682.72,-84.02 688.72,-78.02 694.72,-78.02 694.72,-78.02 780.4,-78.02 780.4,-78.02 786.4,-78.02 792.4,-84.02 792.4,-90.02 792.4,-90.02 792.4,-111.68 792.4,-111.68 792.4,-117.68 786.4,-123.68 780.4,-123.68"/>
<text xml:space="preserve" text-anchor="middle" x="737.56" y="-102.2" font-family="Helvetica,Arial,sans-serif" font-size="12.00" fill="#111111">Screen</text>
<text xml:space="preserve" text-anchor="middle" x="737.56" y="-89.45" font-family="Helvetica,Arial,sans-serif" font-size="12.00" fill="#111111">scanline beam</text>
</g>
<!-- decode&#45;&gt;screen -->
<g id="edge4" class="edge">
<title>decode&#45;&gt;screen</title>
<path fill="none" stroke="#555555" d="M646.14,-100.85C654.22,-100.85 662.56,-100.85 670.77,-100.85"/>
<polygon fill="#555555" stroke="#555555" points="670.71,-104.35 680.71,-100.85 670.71,-97.35 670.71,-104.35"/>
</g>
<!-- screen&#45;&gt;src -->
<g id="edge6" class="edge">
<title>screen&#45;&gt;src</title>
<path fill="none" stroke="#2f7d32" stroke-dasharray="5,2" d="M691.89,-77.53C643.76,-53.87 564.2,-18.93 490.79,-5.85 361.32,17.21 211.38,-37.23 131.42,-72.89"/>
<polygon fill="#2f7d32" stroke="#2f7d32" points="130.13,-69.64 122.46,-76.95 133.01,-76.01 130.13,-69.64"/>
<text xml:space="preserve" text-anchor="middle" x="425.83" y="-17.35" font-family="Helvetica,Arial,sans-serif" font-size="10.00" fill="#2f7d32"> &#160;image feedback</text>
<text xml:space="preserve" text-anchor="middle" x="425.83" y="-6.85" font-family="Helvetica,Arial,sans-serif" font-size="10.00" fill="#2f7d32"> &#160;(camera&#45;at&#45;monitor)</text>
</g>
</g>
</svg>
